<mxfile host="65bd71144e">
    <diagram id="u0QzRZmBRi4nPH_SOOtL" name="Page-1">
        <mxGraphModel dx="642" dy="354" grid="1" gridSize="10" guides="1" tooltips="1" connect="1" arrows="1" fold="1" page="1" pageScale="1" pageWidth="850" pageHeight="1100" math="0" shadow="0">
            <root>
                <mxCell id="0"/>
                <mxCell id="1" parent="0"/>
                <mxCell id="92" value="" style="group" vertex="1" connectable="0" parent="1">
                    <mxGeometry x="40" y="40" width="1300" height="750" as="geometry"/>
                </mxCell>
                <mxCell id="2" value="" style="rounded=0;whiteSpace=wrap;html=1;strokeColor=#FFFFFF;" parent="92" vertex="1">
                    <mxGeometry width="1300" height="750.0000000000001" as="geometry"/>
                </mxCell>
                <mxCell id="3" value="" style="rounded=0;whiteSpace=wrap;html=1;strokeColor=#FFFFFF;" parent="92" vertex="1">
                    <mxGeometry y="8.333333333333332" width="341.25" height="733.3333333333334" as="geometry"/>
                </mxCell>
                <mxCell id="4" value="" style="rounded=0;whiteSpace=wrap;html=1;strokeColor=#FFFFFF;" parent="92" vertex="1">
                    <mxGeometry x="893.7499999999999" y="8.333333333333332" width="406.25" height="733.3333333333334" as="geometry"/>
                </mxCell>
                <mxCell id="6" value="" style="rounded=0;whiteSpace=wrap;html=1;strokeColor=#FFFFFF;" parent="92" vertex="1">
                    <mxGeometry x="341.25" y="8.333333333333332" width="552.5" height="733.3333333333334" as="geometry"/>
                </mxCell>
                <mxCell id="7" value="" style="rounded=0;whiteSpace=wrap;html=1;strokeColor=#FFFFFF;" parent="92" vertex="1">
                    <mxGeometry x="341.25" y="8.333333333333332" width="552.5" height="58.33333333333334" as="geometry"/>
                </mxCell>
                <mxCell id="8" value="Home" style="rounded=0;whiteSpace=wrap;html=1;strokeColor=#FFFFFF;align=left;" parent="92" vertex="1">
                    <mxGeometry x="341.25" y="18.33333333333333" width="503.74999999999994" height="33.33333333333333" as="geometry"/>
                </mxCell>
                <mxCell id="9" value="" style="rounded=0;whiteSpace=wrap;html=1;strokeColor=#FFFFFF;" parent="92" vertex="1">
                    <mxGeometry x="844.9999999999999" y="18.33333333333333" width="32.49999999999999" height="33.33333333333333" as="geometry"/>
                </mxCell>
                <mxCell id="10" value="" style="ellipse;whiteSpace=wrap;html=1;strokeColor=#FFFFFF;" parent="92" vertex="1">
                    <mxGeometry x="853.1249999999999" y="26.666666666666664" width="16.249999999999996" height="16.666666666666664" as="geometry"/>
                </mxCell>
                <mxCell id="13" value="" style="rounded=0;whiteSpace=wrap;html=1;strokeColor=#FFFFFF;" parent="92" vertex="1">
                    <mxGeometry x="341.25" y="66.66666666666666" width="552.5" height="116.66666666666669" as="geometry"/>
                </mxCell>
                <mxCell id="16" value="" style="ellipse;whiteSpace=wrap;html=1;strokeColor=#FFFFFF;" parent="92" vertex="1">
                    <mxGeometry x="357.5" y="83.33333333333334" width="48.75" height="50" as="geometry"/>
                </mxCell>
                <mxCell id="17" value="What's happening?" style="rounded=0;whiteSpace=wrap;html=1;strokeColor=#FFFFFF;" parent="92" vertex="1">
                    <mxGeometry x="422.49999999999994" y="83.33333333333334" width="454.99999999999994" height="50" as="geometry"/>
                </mxCell>
                <mxCell id="18" value="" style="rounded=0;whiteSpace=wrap;html=1;strokeColor=#FFFFFF;" parent="92" vertex="1">
                    <mxGeometry x="422.49999999999994" y="141.66666666666669" width="32.49999999999999" height="33.33333333333333" as="geometry"/>
                </mxCell>
                <mxCell id="19" value="" style="rounded=0;whiteSpace=wrap;html=1;strokeColor=#FFFFFF;" parent="92" vertex="1">
                    <mxGeometry x="454.99999999999994" y="141.66666666666669" width="32.49999999999999" height="33.33333333333333" as="geometry"/>
                </mxCell>
                <mxCell id="20" value="" style="rounded=0;whiteSpace=wrap;html=1;strokeColor=#FFFFFF;" parent="92" vertex="1">
                    <mxGeometry x="487.49999999999994" y="141.66666666666669" width="32.49999999999999" height="33.33333333333333" as="geometry"/>
                </mxCell>
                <mxCell id="21" value="" style="rounded=0;whiteSpace=wrap;html=1;strokeColor=#FFFFFF;" parent="92" vertex="1">
                    <mxGeometry x="519.9999999999999" y="141.66666666666669" width="32.49999999999999" height="33.33333333333333" as="geometry"/>
                </mxCell>
                <mxCell id="22" value="" style="rounded=0;whiteSpace=wrap;html=1;strokeColor=#FFFFFF;" parent="92" vertex="1">
                    <mxGeometry x="552.5" y="141.66666666666669" width="32.49999999999999" height="33.33333333333333" as="geometry"/>
                </mxCell>
                <mxCell id="23" value="Tweet" style="rounded=0;whiteSpace=wrap;html=1;strokeColor=#FFFFFF;" parent="92" vertex="1">
                    <mxGeometry x="763.75" y="141.66666666666669" width="113.74999999999999" height="33.33333333333333" as="geometry"/>
                </mxCell>
                <mxCell id="31" value="" style="group" parent="92" vertex="1" connectable="0">
                    <mxGeometry x="341.25" y="200" width="552.5" height="216.66666666666666" as="geometry"/>
                </mxCell>
                <mxCell id="24" value="" style="rounded=0;whiteSpace=wrap;html=1;strokeColor=#FFFFFF;" parent="31" vertex="1">
                    <mxGeometry width="552.5" height="216.66666666666666" as="geometry"/>
                </mxCell>
                <mxCell id="25" value="" style="ellipse;whiteSpace=wrap;html=1;strokeColor=#FFFFFF;" parent="31" vertex="1">
                    <mxGeometry x="16.249999999999996" y="16.666666666666664" width="48.75" height="50" as="geometry"/>
                </mxCell>
                <mxCell id="29" value="&lt;font style=&quot;font-size: 18px&quot;&gt;...&lt;/font&gt;" style="text;html=1;strokeColor=none;fillColor=none;align=center;verticalAlign=middle;whiteSpace=wrap;rounded=0;" parent="31" vertex="1">
                    <mxGeometry x="487.49999999999994" width="64.99999999999999" height="33.33333333333333" as="geometry"/>
                </mxCell>
                <mxCell id="30" value="Tweet Content" style="rounded=0;whiteSpace=wrap;html=1;strokeColor=#FFFFFF;align=center;" parent="31" vertex="1">
                    <mxGeometry x="81.25" y="66.66666666666666" width="454.99999999999994" height="100" as="geometry"/>
                </mxCell>
                <mxCell id="79" value="" style="group" vertex="1" connectable="0" parent="31">
                    <mxGeometry x="81.25" y="16.666666666666664" width="390" height="33.33333333333333" as="geometry"/>
                </mxCell>
                <mxCell id="26" value="Username" style="rounded=0;whiteSpace=wrap;html=1;strokeColor=#FFFFFF;align=left;" parent="79" vertex="1">
                    <mxGeometry x="113.74999999999999" width="178.75" height="33.33333333333333" as="geometry"/>
                </mxCell>
                <mxCell id="27" value="Time" style="rounded=0;whiteSpace=wrap;html=1;strokeColor=#FFFFFF;align=left;" parent="79" vertex="1">
                    <mxGeometry x="292.5" width="97.5" height="33.33333333333333" as="geometry"/>
                </mxCell>
                <mxCell id="74" value="Name" style="rounded=0;whiteSpace=wrap;html=1;strokeColor=#FFFFFF;align=left;" vertex="1" parent="79">
                    <mxGeometry width="113.74999999999999" height="33.33333333333333" as="geometry"/>
                </mxCell>
                <mxCell id="32" value="" style="group" parent="92" vertex="1" connectable="0">
                    <mxGeometry x="341.25" y="433.3333333333333" width="552.5" height="283.33333333333337" as="geometry"/>
                </mxCell>
                <mxCell id="33" value="" style="rounded=0;whiteSpace=wrap;html=1;strokeColor=#FFFFFF;" parent="32" vertex="1">
                    <mxGeometry width="552.5" height="283.33333333333337" as="geometry"/>
                </mxCell>
                <mxCell id="34" value="" style="ellipse;whiteSpace=wrap;html=1;strokeColor=#FFFFFF;" parent="32" vertex="1">
                    <mxGeometry x="16.249999999999996" y="16.666666666666664" width="48.75" height="50" as="geometry"/>
                </mxCell>
                <mxCell id="37" value="&lt;font style=&quot;font-size: 18px&quot;&gt;...&lt;/font&gt;" style="text;html=1;strokeColor=none;fillColor=none;align=center;verticalAlign=middle;whiteSpace=wrap;rounded=0;" parent="32" vertex="1">
                    <mxGeometry x="487.49999999999994" width="64.99999999999999" height="33.33333333333333" as="geometry"/>
                </mxCell>
                <mxCell id="38" value="Image" style="rounded=0;whiteSpace=wrap;html=1;strokeColor=#FFFFFF;align=center;" parent="32" vertex="1">
                    <mxGeometry x="81.25" y="100" width="454.99999999999994" height="166.66666666666669" as="geometry"/>
                </mxCell>
                <mxCell id="78" value="" style="group" vertex="1" connectable="0" parent="32">
                    <mxGeometry x="81.25" y="16.666666666666664" width="390" height="33.33333333333333" as="geometry"/>
                </mxCell>
                <mxCell id="75" value="Username" style="rounded=0;whiteSpace=wrap;html=1;strokeColor=#FFFFFF;align=left;" vertex="1" parent="78">
                    <mxGeometry x="113.74999999999999" width="178.75" height="33.33333333333333" as="geometry"/>
                </mxCell>
                <mxCell id="76" value="Time" style="rounded=0;whiteSpace=wrap;html=1;strokeColor=#FFFFFF;align=left;" vertex="1" parent="78">
                    <mxGeometry x="292.5" width="97.5" height="33.33333333333333" as="geometry"/>
                </mxCell>
                <mxCell id="77" value="Name" style="rounded=0;whiteSpace=wrap;html=1;strokeColor=#FFFFFF;align=left;" vertex="1" parent="78">
                    <mxGeometry width="113.74999999999999" height="33.33333333333333" as="geometry"/>
                </mxCell>
                <mxCell id="39" value="Caption" style="rounded=0;whiteSpace=wrap;html=1;strokeColor=#FFFFFF;align=left;" parent="92" vertex="1">
                    <mxGeometry x="422.49999999999994" y="500" width="292.5" height="33.33333333333333" as="geometry"/>
                </mxCell>
                <mxCell id="64" value="&lt;span style=&quot;font-size: 11px&quot;&gt;Tweet&lt;/span&gt;" style="rounded=1;whiteSpace=wrap;html=1;arcSize=50;" vertex="1" parent="92">
                    <mxGeometry x="48.75" y="516.6666666666666" width="243.74999999999997" height="50" as="geometry"/>
                </mxCell>
                <mxCell id="65" value="" style="group" vertex="1" connectable="0" parent="92">
                    <mxGeometry x="48.75" y="33.33333333333333" width="243.74999999999997" height="466.66666666666674" as="geometry"/>
                </mxCell>
                <mxCell id="40" value="" style="ellipse;whiteSpace=wrap;html=1;strokeColor=#FFFFFF;" vertex="1" parent="65">
                    <mxGeometry width="40.625" height="40.46535154274152" as="geometry"/>
                </mxCell>
                <mxCell id="61" value="" style="rounded=0;whiteSpace=wrap;html=1;strokeColor=#FFFFFF;align=left;" vertex="1" parent="65">
                    <mxGeometry y="60.698027314112295" width="243.74999999999997" height="404.6535154274153" as="geometry"/>
                </mxCell>
                <mxCell id="62" value="" style="group" vertex="1" connectable="0" parent="65">
                    <mxGeometry y="60.698027314112295" width="223.43749999999997" height="405.96863935255436" as="geometry"/>
                </mxCell>
                <mxCell id="41" value="" style="ellipse;whiteSpace=wrap;html=1;strokeColor=#FFFFFF;" vertex="1" parent="62">
                    <mxGeometry width="40.625" height="39.16001762200792" as="geometry"/>
                </mxCell>
                <mxCell id="42" value="" style="ellipse;whiteSpace=wrap;html=1;strokeColor=#FFFFFF;" vertex="1" parent="62">
                    <mxGeometry y="52.213356829343915" width="40.625" height="39.16001762200792" as="geometry"/>
                </mxCell>
                <mxCell id="43" value="" style="ellipse;whiteSpace=wrap;html=1;strokeColor=#FFFFFF;" vertex="1" parent="62">
                    <mxGeometry y="104.42671365868783" width="40.625" height="39.16001762200792" as="geometry"/>
                </mxCell>
                <mxCell id="44" value="" style="ellipse;whiteSpace=wrap;html=1;strokeColor=#FFFFFF;" vertex="1" parent="62">
                    <mxGeometry y="156.6400704880317" width="40.625" height="39.16001762200792" as="geometry"/>
                </mxCell>
                <mxCell id="45" value="" style="ellipse;whiteSpace=wrap;html=1;strokeColor=#FFFFFF;" vertex="1" parent="62">
                    <mxGeometry y="208.8534273173756" width="40.625" height="39.16001762200792" as="geometry"/>
                </mxCell>
                <mxCell id="46" value="" style="ellipse;whiteSpace=wrap;html=1;strokeColor=#FFFFFF;" vertex="1" parent="62">
                    <mxGeometry y="261.0667841467195" width="40.625" height="39.16001762200792" as="geometry"/>
                </mxCell>
                <mxCell id="47" value="" style="ellipse;whiteSpace=wrap;html=1;strokeColor=#FFFFFF;" vertex="1" parent="62">
                    <mxGeometry y="313.28014097606336" width="40.625" height="39.16001762200792" as="geometry"/>
                </mxCell>
                <mxCell id="48" value="" style="ellipse;whiteSpace=wrap;html=1;strokeColor=#FFFFFF;" vertex="1" parent="62">
                    <mxGeometry y="365.49349780540734" width="40.625" height="39.16001762200792" as="geometry"/>
                </mxCell>
                <mxCell id="53" value="&lt;font style=&quot;font-size: 11px&quot;&gt;Home&lt;/font&gt;" style="rounded=0;whiteSpace=wrap;html=1;strokeColor=#FFFFFF;align=left;" vertex="1" parent="62">
                    <mxGeometry x="81.25" width="142.1875" height="40.46535154274152" as="geometry"/>
                </mxCell>
                <mxCell id="54" value="&lt;font style=&quot;font-size: 11px&quot;&gt;Explore&lt;/font&gt;" style="rounded=0;whiteSpace=wrap;html=1;strokeColor=#FFFFFF;align=left;" vertex="1" parent="62">
                    <mxGeometry x="81.25" y="52.220536165907944" width="142.1875" height="40.46535154274152" as="geometry"/>
                </mxCell>
                <mxCell id="55" value="&lt;font style=&quot;font-size: 11px&quot;&gt;Notifications&lt;/font&gt;" style="rounded=0;whiteSpace=wrap;html=1;strokeColor=#FFFFFF;align=left;" vertex="1" parent="62">
                    <mxGeometry x="81.25" y="104.42083965604452" width="142.1875" height="40.46535154274152" as="geometry"/>
                </mxCell>
                <mxCell id="56" value="&lt;font style=&quot;font-size: 11px&quot;&gt;Messages&lt;/font&gt;" style="rounded=0;whiteSpace=wrap;html=1;strokeColor=#FFFFFF;align=left;" vertex="1" parent="62">
                    <mxGeometry x="81.25" y="156.64137582195252" width="142.1875" height="40.46535154274152" as="geometry"/>
                </mxCell>
                <mxCell id="57" value="&lt;font style=&quot;font-size: 11px&quot;&gt;Bookmarks&lt;/font&gt;" style="rounded=0;whiteSpace=wrap;html=1;strokeColor=#FFFFFF;align=left;" vertex="1" parent="62">
                    <mxGeometry x="81.25" y="208.8619119878604" width="142.1875" height="40.46535154274152" as="geometry"/>
                </mxCell>
                <mxCell id="58" value="&lt;font style=&quot;font-size: 11px&quot;&gt;Lists&lt;/font&gt;" style="rounded=0;whiteSpace=wrap;html=1;strokeColor=#FFFFFF;align=left;" vertex="1" parent="62">
                    <mxGeometry x="81.25" y="261.0622154779969" width="142.1875" height="40.46535154274152" as="geometry"/>
                </mxCell>
                <mxCell id="59" value="&lt;font style=&quot;font-size: 11px&quot;&gt;Profile&lt;/font&gt;" style="rounded=0;whiteSpace=wrap;html=1;strokeColor=#FFFFFF;align=left;" vertex="1" parent="62">
                    <mxGeometry x="81.25" y="313.28275164390504" width="142.1875" height="40.46535154274152" as="geometry"/>
                </mxCell>
                <mxCell id="60" value="&lt;font style=&quot;font-size: 11px&quot;&gt;More&lt;/font&gt;" style="rounded=0;whiteSpace=wrap;html=1;strokeColor=#FFFFFF;align=left;" vertex="1" parent="62">
                    <mxGeometry x="81.25" y="365.50328780981295" width="142.1875" height="40.46535154274152" as="geometry"/>
                </mxCell>
                <mxCell id="66" value="" style="rounded=0;whiteSpace=wrap;html=1;" vertex="1" parent="92">
                    <mxGeometry y="641.6666666666666" width="341.25" height="100" as="geometry"/>
                </mxCell>
                <mxCell id="73" value="" style="group" vertex="1" connectable="0" parent="92">
                    <mxGeometry x="32.49999999999999" y="658.3333333333333" width="276.25" height="66.66666666666666" as="geometry"/>
                </mxCell>
                <mxCell id="69" value="" style="rounded=0;whiteSpace=wrap;html=1;" vertex="1" parent="73">
                    <mxGeometry width="64.99999999999999" height="66.66666666666666" as="geometry"/>
                </mxCell>
                <mxCell id="67" value="" style="ellipse;whiteSpace=wrap;html=1;strokeColor=#FFFFFF;" vertex="1" parent="73">
                    <mxGeometry x="8.124999999999998" y="8.333333333333332" width="48.75" height="50" as="geometry"/>
                </mxCell>
                <mxCell id="70" value="Name" style="rounded=0;whiteSpace=wrap;html=1;align=left;" vertex="1" parent="73">
                    <mxGeometry x="64.99999999999999" width="178.75" height="33.33333333333333" as="geometry"/>
                </mxCell>
                <mxCell id="71" value="Username" style="rounded=0;whiteSpace=wrap;html=1;align=left;" vertex="1" parent="73">
                    <mxGeometry x="64.99999999999999" y="33.33333333333333" width="178.75" height="33.33333333333333" as="geometry"/>
                </mxCell>
                <mxCell id="72" value="..." style="rounded=0;whiteSpace=wrap;html=1;" vertex="1" parent="73">
                    <mxGeometry x="243.74999999999997" width="32.49999999999999" height="66.66666666666666" as="geometry"/>
                </mxCell>
                <mxCell id="80" value="&amp;nbsp; &amp;nbsp; &amp;nbsp; &amp;nbsp; &amp;nbsp; &amp;nbsp; &amp;nbsp; &amp;nbsp; Search Twitter" style="rounded=1;whiteSpace=wrap;html=1;arcSize=50;align=left;" vertex="1" parent="92">
                    <mxGeometry x="909.9999999999999" y="18.33333333333333" width="373.75" height="48.33333333333333" as="geometry"/>
                </mxCell>
                <mxCell id="81" value="" style="ellipse;whiteSpace=wrap;html=1;" vertex="1" parent="92">
                    <mxGeometry x="926.2499999999999" y="25.83333333333333" width="32.49999999999999" height="33.33333333333333" as="geometry"/>
                </mxCell>
                <mxCell id="82" value="" style="rounded=1;whiteSpace=wrap;html=1;arcSize=4;" vertex="1" parent="92">
                    <mxGeometry x="909.9999999999999" y="83.33333333333334" width="373.75" height="400" as="geometry"/>
                </mxCell>
                <mxCell id="83" value="" style="rounded=1;whiteSpace=wrap;html=1;arcSize=4;" vertex="1" parent="92">
                    <mxGeometry x="909.9999999999999" y="500" width="373.75" height="166.66666666666669" as="geometry"/>
                </mxCell>
                <mxCell id="84" value="What's happening" style="rounded=0;whiteSpace=wrap;html=1;align=left;" vertex="1" parent="92">
                    <mxGeometry x="926.2499999999999" y="100" width="341.25" height="33.33333333333333" as="geometry"/>
                </mxCell>
                <mxCell id="85" value="" style="rounded=0;whiteSpace=wrap;html=1;align=left;" vertex="1" parent="92">
                    <mxGeometry x="926.2499999999999" y="141.66666666666669" width="341.25" height="275" as="geometry"/>
                </mxCell>
                <mxCell id="86" value="Show more" style="rounded=0;whiteSpace=wrap;html=1;align=left;" vertex="1" parent="92">
                    <mxGeometry x="926.2499999999999" y="429.16666666666674" width="129.99999999999997" height="37.5" as="geometry"/>
                </mxCell>
                <mxCell id="88" value="Content" style="rounded=0;whiteSpace=wrap;html=1;" vertex="1" parent="92">
                    <mxGeometry x="942.5" y="150" width="308.75" height="110" as="geometry"/>
                </mxCell>
                <mxCell id="89" value="Category" style="rounded=0;whiteSpace=wrap;html=1;" vertex="1" parent="92">
                    <mxGeometry x="942.5" y="150" width="77.5" height="20" as="geometry"/>
                </mxCell>
                <mxCell id="90" value="Status" style="rounded=0;whiteSpace=wrap;html=1;" vertex="1" parent="92">
                    <mxGeometry x="1020" y="150" width="85" height="20" as="geometry"/>
                </mxCell>
                <mxCell id="91" value="Stats" style="rounded=0;whiteSpace=wrap;html=1;" vertex="1" parent="92">
                    <mxGeometry x="942.5" y="240" width="67.5" height="20" as="geometry"/>
                </mxCell>
                <mxCell id="93" value="" style="group" vertex="1" connectable="0" parent="1">
                    <mxGeometry x="50" y="50" width="1300" height="750" as="geometry"/>
                </mxCell>
                <mxCell id="94" value="" style="rounded=0;whiteSpace=wrap;html=1;strokeColor=#FFFFFF;" vertex="1" parent="93">
                    <mxGeometry width="1300" height="750.0000000000001" as="geometry"/>
                </mxCell>
                <mxCell id="95" value="" style="rounded=0;whiteSpace=wrap;html=1;strokeColor=#FFFFFF;" vertex="1" parent="93">
                    <mxGeometry y="8.333333333333332" width="341.25" height="733.3333333333334" as="geometry"/>
                </mxCell>
                <mxCell id="96" value="" style="rounded=0;whiteSpace=wrap;html=1;strokeColor=#FFFFFF;" vertex="1" parent="93">
                    <mxGeometry x="893.7499999999999" y="8.333333333333332" width="406.25" height="733.3333333333334" as="geometry"/>
                </mxCell>
                <mxCell id="97" value="" style="rounded=0;whiteSpace=wrap;html=1;strokeColor=#FFFFFF;" vertex="1" parent="93">
                    <mxGeometry x="341.25" y="8.333333333333332" width="552.5" height="733.3333333333334" as="geometry"/>
                </mxCell>
                <mxCell id="98" value="" style="rounded=0;whiteSpace=wrap;html=1;strokeColor=#FFFFFF;" vertex="1" parent="93">
                    <mxGeometry x="341.25" y="8.333333333333332" width="552.5" height="58.33333333333334" as="geometry"/>
                </mxCell>
                <mxCell id="99" value="Home" style="rounded=0;whiteSpace=wrap;html=1;strokeColor=#FFFFFF;align=left;" vertex="1" parent="93">
                    <mxGeometry x="341.25" y="18.33333333333333" width="503.74999999999994" height="33.33333333333333" as="geometry"/>
                </mxCell>
                <mxCell id="100" value="" style="rounded=0;whiteSpace=wrap;html=1;strokeColor=#FFFFFF;" vertex="1" parent="93">
                    <mxGeometry x="844.9999999999999" y="18.33333333333333" width="32.49999999999999" height="33.33333333333333" as="geometry"/>
                </mxCell>
                <mxCell id="101" value="" style="ellipse;whiteSpace=wrap;html=1;strokeColor=#FFFFFF;" vertex="1" parent="93">
                    <mxGeometry x="853.1249999999999" y="26.666666666666664" width="16.249999999999996" height="16.666666666666664" as="geometry"/>
                </mxCell>
                <mxCell id="102" value="" style="rounded=0;whiteSpace=wrap;html=1;strokeColor=#FFFFFF;" vertex="1" parent="93">
                    <mxGeometry x="341.25" y="66.66666666666666" width="552.5" height="116.66666666666669" as="geometry"/>
                </mxCell>
                <mxCell id="103" value="" style="ellipse;whiteSpace=wrap;html=1;strokeColor=#FFFFFF;" vertex="1" parent="93">
                    <mxGeometry x="357.5" y="83.33333333333334" width="48.75" height="50" as="geometry"/>
                </mxCell>
                <mxCell id="104" value="What's happening?" style="rounded=0;whiteSpace=wrap;html=1;strokeColor=#FFFFFF;" vertex="1" parent="93">
                    <mxGeometry x="422.49999999999994" y="83.33333333333334" width="454.99999999999994" height="50" as="geometry"/>
                </mxCell>
                <mxCell id="105" value="" style="rounded=0;whiteSpace=wrap;html=1;strokeColor=#FFFFFF;" vertex="1" parent="93">
                    <mxGeometry x="422.49999999999994" y="141.66666666666669" width="32.49999999999999" height="33.33333333333333" as="geometry"/>
                </mxCell>
                <mxCell id="106" value="" style="rounded=0;whiteSpace=wrap;html=1;strokeColor=#FFFFFF;" vertex="1" parent="93">
                    <mxGeometry x="454.99999999999994" y="141.66666666666669" width="32.49999999999999" height="33.33333333333333" as="geometry"/>
                </mxCell>
                <mxCell id="107" value="" style="rounded=0;whiteSpace=wrap;html=1;strokeColor=#FFFFFF;" vertex="1" parent="93">
                    <mxGeometry x="487.49999999999994" y="141.66666666666669" width="32.49999999999999" height="33.33333333333333" as="geometry"/>
                </mxCell>
                <mxCell id="108" value="" style="rounded=0;whiteSpace=wrap;html=1;strokeColor=#FFFFFF;" vertex="1" parent="93">
                    <mxGeometry x="519.9999999999999" y="141.66666666666669" width="32.49999999999999" height="33.33333333333333" as="geometry"/>
                </mxCell>
                <mxCell id="109" value="" style="rounded=0;whiteSpace=wrap;html=1;strokeColor=#FFFFFF;" vertex="1" parent="93">
                    <mxGeometry x="552.5" y="141.66666666666669" width="32.49999999999999" height="33.33333333333333" as="geometry"/>
                </mxCell>
                <mxCell id="110" value="Tweet" style="rounded=0;whiteSpace=wrap;html=1;strokeColor=#FFFFFF;" vertex="1" parent="93">
                    <mxGeometry x="763.75" y="141.66666666666669" width="113.74999999999999" height="33.33333333333333" as="geometry"/>
                </mxCell>
                <mxCell id="111" value="" style="group" vertex="1" connectable="0" parent="93">
                    <mxGeometry x="341.25" y="200" width="552.5" height="216.66666666666666" as="geometry"/>
                </mxCell>
                <mxCell id="112" value="" style="rounded=0;whiteSpace=wrap;html=1;strokeColor=#FFFFFF;" vertex="1" parent="111">
                    <mxGeometry width="552.5" height="216.66666666666666" as="geometry"/>
                </mxCell>
                <mxCell id="113" value="" style="ellipse;whiteSpace=wrap;html=1;strokeColor=#FFFFFF;" vertex="1" parent="111">
                    <mxGeometry x="16.249999999999996" y="16.666666666666664" width="48.75" height="50" as="geometry"/>
                </mxCell>
                <mxCell id="114" value="&lt;font style=&quot;font-size: 18px&quot;&gt;...&lt;/font&gt;" style="text;html=1;strokeColor=none;fillColor=none;align=center;verticalAlign=middle;whiteSpace=wrap;rounded=0;" vertex="1" parent="111">
                    <mxGeometry x="487.49999999999994" width="64.99999999999999" height="33.33333333333333" as="geometry"/>
                </mxCell>
                <mxCell id="115" value="Tweet Content" style="rounded=0;whiteSpace=wrap;html=1;strokeColor=#FFFFFF;align=center;" vertex="1" parent="111">
                    <mxGeometry x="81.25" y="66.66666666666666" width="454.99999999999994" height="100" as="geometry"/>
                </mxCell>
                <mxCell id="116" value="" style="group" vertex="1" connectable="0" parent="111">
                    <mxGeometry x="81.25" y="16.666666666666664" width="390" height="33.33333333333333" as="geometry"/>
                </mxCell>
                <mxCell id="117" value="Username" style="rounded=0;whiteSpace=wrap;html=1;strokeColor=#FFFFFF;align=left;" vertex="1" parent="116">
                    <mxGeometry x="113.74999999999999" width="178.75" height="33.33333333333333" as="geometry"/>
                </mxCell>
                <mxCell id="118" value="Time" style="rounded=0;whiteSpace=wrap;html=1;strokeColor=#FFFFFF;align=left;" vertex="1" parent="116">
                    <mxGeometry x="292.5" width="97.5" height="33.33333333333333" as="geometry"/>
                </mxCell>
                <mxCell id="119" value="Name" style="rounded=0;whiteSpace=wrap;html=1;strokeColor=#FFFFFF;align=left;" vertex="1" parent="116">
                    <mxGeometry width="113.74999999999999" height="33.33333333333333" as="geometry"/>
                </mxCell>
                <mxCell id="120" value="" style="group" vertex="1" connectable="0" parent="93">
                    <mxGeometry x="341.25" y="433.3333333333333" width="552.5" height="283.33333333333337" as="geometry"/>
                </mxCell>
                <mxCell id="121" value="" style="rounded=0;whiteSpace=wrap;html=1;strokeColor=#FFFFFF;" vertex="1" parent="120">
                    <mxGeometry width="552.5" height="283.33333333333337" as="geometry"/>
                </mxCell>
                <mxCell id="122" value="" style="ellipse;whiteSpace=wrap;html=1;strokeColor=#FFFFFF;" vertex="1" parent="120">
                    <mxGeometry x="16.249999999999996" y="16.666666666666664" width="48.75" height="50" as="geometry"/>
                </mxCell>
                <mxCell id="123" value="&lt;font style=&quot;font-size: 18px&quot;&gt;...&lt;/font&gt;" style="text;html=1;strokeColor=none;fillColor=none;align=center;verticalAlign=middle;whiteSpace=wrap;rounded=0;" vertex="1" parent="120">
                    <mxGeometry x="487.49999999999994" width="64.99999999999999" height="33.33333333333333" as="geometry"/>
                </mxCell>
                <mxCell id="124" value="Image" style="rounded=0;whiteSpace=wrap;html=1;strokeColor=#FFFFFF;align=center;" vertex="1" parent="120">
                    <mxGeometry x="81.25" y="100" width="454.99999999999994" height="166.66666666666669" as="geometry"/>
                </mxCell>
                <mxCell id="125" value="" style="group" vertex="1" connectable="0" parent="120">
                    <mxGeometry x="81.25" y="16.666666666666664" width="390" height="33.33333333333333" as="geometry"/>
                </mxCell>
                <mxCell id="126" value="Username" style="rounded=0;whiteSpace=wrap;html=1;strokeColor=#FFFFFF;align=left;" vertex="1" parent="125">
                    <mxGeometry x="113.74999999999999" width="178.75" height="33.33333333333333" as="geometry"/>
                </mxCell>
                <mxCell id="127" value="Time" style="rounded=0;whiteSpace=wrap;html=1;strokeColor=#FFFFFF;align=left;" vertex="1" parent="125">
                    <mxGeometry x="292.5" width="97.5" height="33.33333333333333" as="geometry"/>
                </mxCell>
                <mxCell id="128" value="Name" style="rounded=0;whiteSpace=wrap;html=1;strokeColor=#FFFFFF;align=left;" vertex="1" parent="125">
                    <mxGeometry width="113.74999999999999" height="33.33333333333333" as="geometry"/>
                </mxCell>
                <mxCell id="129" value="Caption" style="rounded=0;whiteSpace=wrap;html=1;strokeColor=#FFFFFF;align=left;" vertex="1" parent="93">
                    <mxGeometry x="422.49999999999994" y="500" width="292.5" height="33.33333333333333" as="geometry"/>
                </mxCell>
                <mxCell id="130" value="&lt;span style=&quot;font-size: 11px&quot;&gt;Tweet&lt;/span&gt;" style="rounded=1;whiteSpace=wrap;html=1;arcSize=50;" vertex="1" parent="93">
                    <mxGeometry x="48.75" y="516.6666666666666" width="243.74999999999997" height="50" as="geometry"/>
                </mxCell>
                <mxCell id="131" value="" style="group" vertex="1" connectable="0" parent="93">
                    <mxGeometry x="48.75" y="33.33333333333333" width="243.74999999999997" height="466.66666666666674" as="geometry"/>
                </mxCell>
                <mxCell id="132" value="" style="ellipse;whiteSpace=wrap;html=1;strokeColor=#FFFFFF;" vertex="1" parent="131">
                    <mxGeometry width="40.625" height="40.46535154274152" as="geometry"/>
                </mxCell>
                <mxCell id="133" value="" style="rounded=0;whiteSpace=wrap;html=1;strokeColor=#FFFFFF;align=left;" vertex="1" parent="131">
                    <mxGeometry y="60.698027314112295" width="243.74999999999997" height="404.6535154274153" as="geometry"/>
                </mxCell>
                <mxCell id="134" value="" style="group" vertex="1" connectable="0" parent="131">
                    <mxGeometry y="60.698027314112295" width="223.43749999999997" height="405.96863935255436" as="geometry"/>
                </mxCell>
                <mxCell id="135" value="" style="ellipse;whiteSpace=wrap;html=1;strokeColor=#FFFFFF;" vertex="1" parent="134">
                    <mxGeometry width="40.625" height="39.16001762200792" as="geometry"/>
                </mxCell>
                <mxCell id="136" value="" style="ellipse;whiteSpace=wrap;html=1;strokeColor=#FFFFFF;" vertex="1" parent="134">
                    <mxGeometry y="52.213356829343915" width="40.625" height="39.16001762200792" as="geometry"/>
                </mxCell>
                <mxCell id="137" value="" style="ellipse;whiteSpace=wrap;html=1;strokeColor=#FFFFFF;" vertex="1" parent="134">
                    <mxGeometry y="104.42671365868783" width="40.625" height="39.16001762200792" as="geometry"/>
                </mxCell>
                <mxCell id="138" value="" style="ellipse;whiteSpace=wrap;html=1;strokeColor=#FFFFFF;" vertex="1" parent="134">
                    <mxGeometry y="156.6400704880317" width="40.625" height="39.16001762200792" as="geometry"/>
                </mxCell>
                <mxCell id="139" value="" style="ellipse;whiteSpace=wrap;html=1;strokeColor=#FFFFFF;" vertex="1" parent="134">
                    <mxGeometry y="208.8534273173756" width="40.625" height="39.16001762200792" as="geometry"/>
                </mxCell>
                <mxCell id="140" value="" style="ellipse;whiteSpace=wrap;html=1;strokeColor=#FFFFFF;" vertex="1" parent="134">
                    <mxGeometry y="261.0667841467195" width="40.625" height="39.16001762200792" as="geometry"/>
                </mxCell>
                <mxCell id="141" value="" style="ellipse;whiteSpace=wrap;html=1;strokeColor=#FFFFFF;" vertex="1" parent="134">
                    <mxGeometry y="313.28014097606336" width="40.625" height="39.16001762200792" as="geometry"/>
                </mxCell>
                <mxCell id="142" value="" style="ellipse;whiteSpace=wrap;html=1;strokeColor=#FFFFFF;" vertex="1" parent="134">
                    <mxGeometry y="365.49349780540734" width="40.625" height="39.16001762200792" as="geometry"/>
                </mxCell>
                <mxCell id="143" value="&lt;font style=&quot;font-size: 11px&quot;&gt;Home&lt;/font&gt;" style="rounded=0;whiteSpace=wrap;html=1;strokeColor=#FFFFFF;align=left;" vertex="1" parent="134">
                    <mxGeometry x="81.25" width="142.1875" height="40.46535154274152" as="geometry"/>
                </mxCell>
                <mxCell id="144" value="&lt;font style=&quot;font-size: 11px&quot;&gt;Explore&lt;/font&gt;" style="rounded=0;whiteSpace=wrap;html=1;strokeColor=#FFFFFF;align=left;" vertex="1" parent="134">
                    <mxGeometry x="81.25" y="52.220536165907944" width="142.1875" height="40.46535154274152" as="geometry"/>
                </mxCell>
                <mxCell id="145" value="&lt;font style=&quot;font-size: 11px&quot;&gt;Notifications&lt;/font&gt;" style="rounded=0;whiteSpace=wrap;html=1;strokeColor=#FFFFFF;align=left;" vertex="1" parent="134">
                    <mxGeometry x="81.25" y="104.42083965604452" width="142.1875" height="40.46535154274152" as="geometry"/>
                </mxCell>
                <mxCell id="146" value="&lt;font style=&quot;font-size: 11px&quot;&gt;Messages&lt;/font&gt;" style="rounded=0;whiteSpace=wrap;html=1;strokeColor=#FFFFFF;align=left;" vertex="1" parent="134">
                    <mxGeometry x="81.25" y="156.64137582195252" width="142.1875" height="40.46535154274152" as="geometry"/>
                </mxCell>
                <mxCell id="147" value="&lt;font style=&quot;font-size: 11px&quot;&gt;Bookmarks&lt;/font&gt;" style="rounded=0;whiteSpace=wrap;html=1;strokeColor=#FFFFFF;align=left;" vertex="1" parent="134">
                    <mxGeometry x="81.25" y="208.8619119878604" width="142.1875" height="40.46535154274152" as="geometry"/>
                </mxCell>
                <mxCell id="148" value="&lt;font style=&quot;font-size: 11px&quot;&gt;Lists&lt;/font&gt;" style="rounded=0;whiteSpace=wrap;html=1;strokeColor=#FFFFFF;align=left;" vertex="1" parent="134">
                    <mxGeometry x="81.25" y="261.0622154779969" width="142.1875" height="40.46535154274152" as="geometry"/>
                </mxCell>
                <mxCell id="149" value="&lt;font style=&quot;font-size: 11px&quot;&gt;Profile&lt;/font&gt;" style="rounded=0;whiteSpace=wrap;html=1;strokeColor=#FFFFFF;align=left;" vertex="1" parent="134">
                    <mxGeometry x="81.25" y="313.28275164390504" width="142.1875" height="40.46535154274152" as="geometry"/>
                </mxCell>
                <mxCell id="150" value="&lt;font style=&quot;font-size: 11px&quot;&gt;More&lt;/font&gt;" style="rounded=0;whiteSpace=wrap;html=1;strokeColor=#FFFFFF;align=left;" vertex="1" parent="134">
                    <mxGeometry x="81.25" y="365.50328780981295" width="142.1875" height="40.46535154274152" as="geometry"/>
                </mxCell>
                <mxCell id="151" value="" style="rounded=0;whiteSpace=wrap;html=1;" vertex="1" parent="93">
                    <mxGeometry y="641.6666666666666" width="341.25" height="100" as="geometry"/>
                </mxCell>
                <mxCell id="152" value="" style="group" vertex="1" connectable="0" parent="93">
                    <mxGeometry x="32.49999999999999" y="658.3333333333333" width="276.25" height="66.66666666666666" as="geometry"/>
                </mxCell>
                <mxCell id="153" value="" style="rounded=0;whiteSpace=wrap;html=1;" vertex="1" parent="152">
                    <mxGeometry width="64.99999999999999" height="66.66666666666666" as="geometry"/>
                </mxCell>
                <mxCell id="154" value="" style="ellipse;whiteSpace=wrap;html=1;strokeColor=#FFFFFF;" vertex="1" parent="152">
                    <mxGeometry x="8.124999999999998" y="8.333333333333332" width="48.75" height="50" as="geometry"/>
                </mxCell>
                <mxCell id="155" value="Name" style="rounded=0;whiteSpace=wrap;html=1;align=left;" vertex="1" parent="152">
                    <mxGeometry x="64.99999999999999" width="178.75" height="33.33333333333333" as="geometry"/>
                </mxCell>
                <mxCell id="156" value="Username" style="rounded=0;whiteSpace=wrap;html=1;align=left;" vertex="1" parent="152">
                    <mxGeometry x="64.99999999999999" y="33.33333333333333" width="178.75" height="33.33333333333333" as="geometry"/>
                </mxCell>
                <mxCell id="157" value="..." style="rounded=0;whiteSpace=wrap;html=1;" vertex="1" parent="152">
                    <mxGeometry x="243.74999999999997" width="32.49999999999999" height="66.66666666666666" as="geometry"/>
                </mxCell>
                <mxCell id="158" value="&amp;nbsp; &amp;nbsp; &amp;nbsp; &amp;nbsp; &amp;nbsp; &amp;nbsp; &amp;nbsp; &amp;nbsp; Search Twitter" style="rounded=1;whiteSpace=wrap;html=1;arcSize=50;align=left;" vertex="1" parent="93">
                    <mxGeometry x="909.9999999999999" y="18.33333333333333" width="373.75" height="48.33333333333333" as="geometry"/>
                </mxCell>
                <mxCell id="159" value="" style="ellipse;whiteSpace=wrap;html=1;" vertex="1" parent="93">
                    <mxGeometry x="926.2499999999999" y="25.83333333333333" width="32.49999999999999" height="33.33333333333333" as="geometry"/>
                </mxCell>
                <mxCell id="160" value="" style="rounded=1;whiteSpace=wrap;html=1;arcSize=4;" vertex="1" parent="93">
                    <mxGeometry x="909.9999999999999" y="83.33333333333334" width="373.75" height="400" as="geometry"/>
                </mxCell>
                <mxCell id="161" value="" style="rounded=1;whiteSpace=wrap;html=1;arcSize=4;" vertex="1" parent="93">
                    <mxGeometry x="909.9999999999999" y="500" width="373.75" height="166.66666666666669" as="geometry"/>
                </mxCell>
                <mxCell id="162" value="What's happening" style="rounded=0;whiteSpace=wrap;html=1;align=left;" vertex="1" parent="93">
                    <mxGeometry x="926.2499999999999" y="100" width="341.25" height="33.33333333333333" as="geometry"/>
                </mxCell>
                <mxCell id="163" value="" style="rounded=0;whiteSpace=wrap;html=1;align=left;" vertex="1" parent="93">
                    <mxGeometry x="926.2499999999999" y="141.66666666666669" width="341.25" height="275" as="geometry"/>
                </mxCell>
                <mxCell id="164" value="Show more" style="rounded=0;whiteSpace=wrap;html=1;align=left;" vertex="1" parent="93">
                    <mxGeometry x="926.2499999999999" y="429.16666666666674" width="129.99999999999997" height="37.5" as="geometry"/>
                </mxCell>
                <mxCell id="171" value="" style="group" vertex="1" connectable="0" parent="93">
                    <mxGeometry x="942.5" y="150" width="308.75" height="110" as="geometry"/>
                </mxCell>
                <mxCell id="165" value="" style="rounded=0;whiteSpace=wrap;html=1;" vertex="1" parent="171">
                    <mxGeometry width="308.75" height="110" as="geometry"/>
                </mxCell>
                <mxCell id="166" value="Category" style="rounded=0;whiteSpace=wrap;html=1;" vertex="1" parent="171">
                    <mxGeometry width="77.5" height="20" as="geometry"/>
                </mxCell>
                <mxCell id="167" value="Status" style="rounded=0;whiteSpace=wrap;html=1;" vertex="1" parent="171">
                    <mxGeometry x="77.5" width="85" height="20" as="geometry"/>
                </mxCell>
                <mxCell id="168" value="Stats" style="rounded=0;whiteSpace=wrap;html=1;" vertex="1" parent="171">
                    <mxGeometry y="90" width="67.5" height="20" as="geometry"/>
                </mxCell>
                <mxCell id="169" value="Content" style="rounded=0;whiteSpace=wrap;html=1;" vertex="1" parent="171">
                    <mxGeometry y="20" width="217.5" height="70" as="geometry"/>
                </mxCell>
                <mxCell id="170" value="Image" style="rounded=0;whiteSpace=wrap;html=1;" vertex="1" parent="171">
                    <mxGeometry x="227.5" y="20" width="67.5" height="70" as="geometry"/>
                </mxCell>
                <mxCell id="172" value="" style="group" vertex="1" connectable="0" parent="93">
                    <mxGeometry x="942.5" y="270" width="308.75" height="110" as="geometry"/>
                </mxCell>
                <mxCell id="173" value="" style="rounded=0;whiteSpace=wrap;html=1;" vertex="1" parent="172">
                    <mxGeometry width="308.75" height="110" as="geometry"/>
                </mxCell>
                <mxCell id="174" value="Category" style="rounded=0;whiteSpace=wrap;html=1;" vertex="1" parent="172">
                    <mxGeometry width="77.5" height="20" as="geometry"/>
                </mxCell>
                <mxCell id="175" value="Status" style="rounded=0;whiteSpace=wrap;html=1;" vertex="1" parent="172">
                    <mxGeometry x="77.5" width="85" height="20" as="geometry"/>
                </mxCell>
                <mxCell id="176" value="Stats" style="rounded=0;whiteSpace=wrap;html=1;" vertex="1" parent="172">
                    <mxGeometry y="90" width="67.5" height="20" as="geometry"/>
                </mxCell>
                <mxCell id="177" value="Content" style="rounded=0;whiteSpace=wrap;html=1;" vertex="1" parent="172">
                    <mxGeometry y="20" width="217.5" height="70" as="geometry"/>
                </mxCell>
                <mxCell id="178" value="Image" style="rounded=0;whiteSpace=wrap;html=1;" vertex="1" parent="172">
                    <mxGeometry x="227.5" y="20" width="67.5" height="70" as="geometry"/>
                </mxCell>
                <mxCell id="179" value="Who to follow" style="rounded=0;whiteSpace=wrap;html=1;align=left;" vertex="1" parent="93">
                    <mxGeometry x="920" y="506.67" width="120" height="23.33" as="geometry"/>
                </mxCell>
                <mxCell id="182" value="" style="rounded=0;whiteSpace=wrap;html=1;" vertex="1" parent="93">
                    <mxGeometry x="920" y="533.33" width="350" height="60" as="geometry"/>
                </mxCell>
                <mxCell id="183" value="Follow" style="rounded=1;whiteSpace=wrap;html=1;arcSize=50;" vertex="1" parent="93">
                    <mxGeometry x="1190" y="548.33" width="70" height="30" as="geometry"/>
                </mxCell>
                <mxCell id="184" value="" style="ellipse;whiteSpace=wrap;html=1;" vertex="1" parent="93">
                    <mxGeometry x="926.25" y="546.66" width="33.75" height="33.33" as="geometry"/>
                </mxCell>
                <mxCell id="185" value="Name" style="rounded=0;whiteSpace=wrap;html=1;align=left;" vertex="1" parent="93">
                    <mxGeometry x="970" y="546.66" width="207.5" height="13.34" as="geometry"/>
                </mxCell>
                <mxCell id="186" value=" " style="group" vertex="1" connectable="0" parent="1">
                    <mxGeometry x="50" y="50" width="1300" height="750" as="geometry"/>
                </mxCell>
                <mxCell id="187" value="" style="rounded=0;whiteSpace=wrap;html=1;strokeColor=#FFFFFF;" vertex="1" parent="186">
                    <mxGeometry width="1300" height="750.0000000000001" as="geometry"/>
                </mxCell>
                <mxCell id="188" value="" style="rounded=0;whiteSpace=wrap;html=1;strokeColor=#FFFFFF;" vertex="1" parent="186">
                    <mxGeometry y="8.333333333333332" width="341.25" height="733.3333333333334" as="geometry"/>
                </mxCell>
                <mxCell id="189" value="" style="rounded=0;whiteSpace=wrap;html=1;strokeColor=#FFFFFF;" vertex="1" parent="186">
                    <mxGeometry x="893.7499999999999" y="8.333333333333332" width="406.25" height="733.3333333333334" as="geometry"/>
                </mxCell>
                <mxCell id="190" value="" style="rounded=0;whiteSpace=wrap;html=1;strokeColor=#FFFFFF;" vertex="1" parent="186">
                    <mxGeometry x="341.25" y="8.333333333333332" width="552.5" height="733.3333333333334" as="geometry"/>
                </mxCell>
                <mxCell id="191" value="" style="rounded=0;whiteSpace=wrap;html=1;strokeColor=#FFFFFF;" vertex="1" parent="186">
                    <mxGeometry x="341.25" y="8.333333333333332" width="552.5" height="58.33333333333334" as="geometry"/>
                </mxCell>
                <mxCell id="192" value="Home" style="rounded=0;whiteSpace=wrap;html=1;strokeColor=#FFFFFF;align=left;" vertex="1" parent="186">
                    <mxGeometry x="341.25" y="18.33333333333333" width="503.74999999999994" height="33.33333333333333" as="geometry"/>
                </mxCell>
                <mxCell id="193" value="" style="rounded=0;whiteSpace=wrap;html=1;strokeColor=#FFFFFF;" vertex="1" parent="186">
                    <mxGeometry x="844.9999999999999" y="18.33333333333333" width="32.49999999999999" height="33.33333333333333" as="geometry"/>
                </mxCell>
                <mxCell id="194" value="" style="ellipse;whiteSpace=wrap;html=1;strokeColor=#FFFFFF;" vertex="1" parent="186">
                    <mxGeometry x="853.1249999999999" y="26.666666666666664" width="16.249999999999996" height="16.666666666666664" as="geometry"/>
                </mxCell>
                <mxCell id="195" value="" style="rounded=0;whiteSpace=wrap;html=1;strokeColor=#FFFFFF;" vertex="1" parent="186">
                    <mxGeometry x="341.25" y="66.66666666666666" width="552.5" height="116.66666666666669" as="geometry"/>
                </mxCell>
                <mxCell id="196" value="" style="ellipse;whiteSpace=wrap;html=1;strokeColor=#FFFFFF;" vertex="1" parent="186">
                    <mxGeometry x="357.5" y="83.33333333333334" width="48.75" height="50" as="geometry"/>
                </mxCell>
                <mxCell id="197" value="What's happening?" style="rounded=0;whiteSpace=wrap;html=1;strokeColor=#FFFFFF;" vertex="1" parent="186">
                    <mxGeometry x="422.49999999999994" y="83.33333333333334" width="454.99999999999994" height="50" as="geometry"/>
                </mxCell>
                <mxCell id="198" value="" style="rounded=0;whiteSpace=wrap;html=1;strokeColor=#FFFFFF;" vertex="1" parent="186">
                    <mxGeometry x="422.49999999999994" y="141.66666666666669" width="32.49999999999999" height="33.33333333333333" as="geometry"/>
                </mxCell>
                <mxCell id="199" value="" style="rounded=0;whiteSpace=wrap;html=1;strokeColor=#FFFFFF;" vertex="1" parent="186">
                    <mxGeometry x="454.99999999999994" y="141.66666666666669" width="32.49999999999999" height="33.33333333333333" as="geometry"/>
                </mxCell>
                <mxCell id="200" value="" style="rounded=0;whiteSpace=wrap;html=1;strokeColor=#FFFFFF;" vertex="1" parent="186">
                    <mxGeometry x="487.49999999999994" y="141.66666666666669" width="32.49999999999999" height="33.33333333333333" as="geometry"/>
                </mxCell>
                <mxCell id="201" value="" style="rounded=0;whiteSpace=wrap;html=1;strokeColor=#FFFFFF;" vertex="1" parent="186">
                    <mxGeometry x="519.9999999999999" y="141.66666666666669" width="32.49999999999999" height="33.33333333333333" as="geometry"/>
                </mxCell>
                <mxCell id="202" value="" style="rounded=0;whiteSpace=wrap;html=1;strokeColor=#FFFFFF;" vertex="1" parent="186">
                    <mxGeometry x="552.5" y="141.66666666666669" width="32.49999999999999" height="33.33333333333333" as="geometry"/>
                </mxCell>
                <mxCell id="203" value="Tweet" style="rounded=0;whiteSpace=wrap;html=1;strokeColor=#FFFFFF;" vertex="1" parent="186">
                    <mxGeometry x="763.75" y="141.66666666666669" width="113.74999999999999" height="33.33333333333333" as="geometry"/>
                </mxCell>
                <mxCell id="204" value="" style="group" vertex="1" connectable="0" parent="186">
                    <mxGeometry x="341.25" y="200" width="552.5" height="216.66666666666666" as="geometry"/>
                </mxCell>
                <mxCell id="205" value="" style="rounded=0;whiteSpace=wrap;html=1;strokeColor=#FFFFFF;" vertex="1" parent="204">
                    <mxGeometry width="552.5" height="216.66666666666666" as="geometry"/>
                </mxCell>
                <mxCell id="206" value="" style="ellipse;whiteSpace=wrap;html=1;strokeColor=#FFFFFF;" vertex="1" parent="204">
                    <mxGeometry x="16.249999999999996" y="16.666666666666664" width="48.75" height="50" as="geometry"/>
                </mxCell>
                <mxCell id="207" value="&lt;font style=&quot;font-size: 18px&quot;&gt;...&lt;/font&gt;" style="text;html=1;strokeColor=none;fillColor=none;align=center;verticalAlign=middle;whiteSpace=wrap;rounded=0;" vertex="1" parent="204">
                    <mxGeometry x="487.49999999999994" width="64.99999999999999" height="33.33333333333333" as="geometry"/>
                </mxCell>
                <mxCell id="208" value="Tweet Content" style="rounded=0;whiteSpace=wrap;html=1;strokeColor=#FFFFFF;align=center;" vertex="1" parent="204">
                    <mxGeometry x="81.25" y="66.66666666666666" width="454.99999999999994" height="100" as="geometry"/>
                </mxCell>
                <mxCell id="209" value="" style="group" vertex="1" connectable="0" parent="204">
                    <mxGeometry x="81.25" y="16.666666666666664" width="390" height="33.33333333333333" as="geometry"/>
                </mxCell>
                <mxCell id="210" value="Username" style="rounded=0;whiteSpace=wrap;html=1;strokeColor=#FFFFFF;align=left;" vertex="1" parent="209">
                    <mxGeometry x="113.74999999999999" width="178.75" height="33.33333333333333" as="geometry"/>
                </mxCell>
                <mxCell id="211" value="Time" style="rounded=0;whiteSpace=wrap;html=1;strokeColor=#FFFFFF;align=left;" vertex="1" parent="209">
                    <mxGeometry x="292.5" width="97.5" height="33.33333333333333" as="geometry"/>
                </mxCell>
                <mxCell id="212" value="Name" style="rounded=0;whiteSpace=wrap;html=1;strokeColor=#FFFFFF;align=left;" vertex="1" parent="209">
                    <mxGeometry width="113.74999999999999" height="33.33333333333333" as="geometry"/>
                </mxCell>
                <mxCell id="213" value="" style="group" vertex="1" connectable="0" parent="186">
                    <mxGeometry x="341.25" y="433.3333333333333" width="552.5" height="283.33333333333337" as="geometry"/>
                </mxCell>
                <mxCell id="214" value="" style="rounded=0;whiteSpace=wrap;html=1;strokeColor=#FFFFFF;" vertex="1" parent="213">
                    <mxGeometry width="552.5" height="283.33333333333337" as="geometry"/>
                </mxCell>
                <mxCell id="215" value="" style="ellipse;whiteSpace=wrap;html=1;strokeColor=#FFFFFF;" vertex="1" parent="213">
                    <mxGeometry x="16.249999999999996" y="16.666666666666664" width="48.75" height="50" as="geometry"/>
                </mxCell>
                <mxCell id="216" value="&lt;font style=&quot;font-size: 18px&quot;&gt;...&lt;/font&gt;" style="text;html=1;strokeColor=none;fillColor=none;align=center;verticalAlign=middle;whiteSpace=wrap;rounded=0;" vertex="1" parent="213">
                    <mxGeometry x="487.49999999999994" width="64.99999999999999" height="33.33333333333333" as="geometry"/>
                </mxCell>
                <mxCell id="217" value="Image" style="rounded=0;whiteSpace=wrap;html=1;strokeColor=#FFFFFF;align=center;" vertex="1" parent="213">
                    <mxGeometry x="81.25" y="100" width="454.99999999999994" height="166.66666666666669" as="geometry"/>
                </mxCell>
                <mxCell id="218" value="" style="group" vertex="1" connectable="0" parent="213">
                    <mxGeometry x="81.25" y="16.666666666666664" width="390" height="33.33333333333333" as="geometry"/>
                </mxCell>
                <mxCell id="219" value="Username" style="rounded=0;whiteSpace=wrap;html=1;strokeColor=#FFFFFF;align=left;" vertex="1" parent="218">
                    <mxGeometry x="113.74999999999999" width="178.75" height="33.33333333333333" as="geometry"/>
                </mxCell>
                <mxCell id="220" value="Time" style="rounded=0;whiteSpace=wrap;html=1;strokeColor=#FFFFFF;align=left;" vertex="1" parent="218">
                    <mxGeometry x="292.5" width="97.5" height="33.33333333333333" as="geometry"/>
                </mxCell>
                <mxCell id="221" value="Name" style="rounded=0;whiteSpace=wrap;html=1;strokeColor=#FFFFFF;align=left;" vertex="1" parent="218">
                    <mxGeometry width="113.74999999999999" height="33.33333333333333" as="geometry"/>
                </mxCell>
                <mxCell id="222" value="Caption" style="rounded=0;whiteSpace=wrap;html=1;strokeColor=#FFFFFF;align=left;" vertex="1" parent="186">
                    <mxGeometry x="422.49999999999994" y="500" width="292.5" height="33.33333333333333" as="geometry"/>
                </mxCell>
                <mxCell id="223" value="&lt;span style=&quot;font-size: 11px&quot;&gt;Tweet&lt;/span&gt;" style="rounded=1;whiteSpace=wrap;html=1;arcSize=50;" vertex="1" parent="186">
                    <mxGeometry x="48.75" y="516.6666666666666" width="243.74999999999997" height="50" as="geometry"/>
                </mxCell>
                <mxCell id="224" value="" style="group" vertex="1" connectable="0" parent="186">
                    <mxGeometry x="48.75" y="33.33333333333333" width="243.74999999999997" height="466.66666666666674" as="geometry"/>
                </mxCell>
                <mxCell id="225" value="" style="ellipse;whiteSpace=wrap;html=1;strokeColor=#FFFFFF;" vertex="1" parent="224">
                    <mxGeometry width="40.625" height="40.46535154274152" as="geometry"/>
                </mxCell>
                <mxCell id="226" value="" style="rounded=0;whiteSpace=wrap;html=1;strokeColor=#FFFFFF;align=left;" vertex="1" parent="224">
                    <mxGeometry y="60.698027314112295" width="243.74999999999997" height="404.6535154274153" as="geometry"/>
                </mxCell>
                <mxCell id="227" value="" style="group" vertex="1" connectable="0" parent="224">
                    <mxGeometry y="60.698027314112295" width="223.43749999999997" height="405.96863935255436" as="geometry"/>
                </mxCell>
                <mxCell id="228" value="" style="ellipse;whiteSpace=wrap;html=1;strokeColor=#FFFFFF;" vertex="1" parent="227">
                    <mxGeometry width="40.625" height="39.16001762200792" as="geometry"/>
                </mxCell>
                <mxCell id="229" value="" style="ellipse;whiteSpace=wrap;html=1;strokeColor=#FFFFFF;" vertex="1" parent="227">
                    <mxGeometry y="52.213356829343915" width="40.625" height="39.16001762200792" as="geometry"/>
                </mxCell>
                <mxCell id="230" value="" style="ellipse;whiteSpace=wrap;html=1;strokeColor=#FFFFFF;" vertex="1" parent="227">
                    <mxGeometry y="104.42671365868783" width="40.625" height="39.16001762200792" as="geometry"/>
                </mxCell>
                <mxCell id="231" value="" style="ellipse;whiteSpace=wrap;html=1;strokeColor=#FFFFFF;" vertex="1" parent="227">
                    <mxGeometry y="156.6400704880317" width="40.625" height="39.16001762200792" as="geometry"/>
                </mxCell>
                <mxCell id="232" value="" style="ellipse;whiteSpace=wrap;html=1;strokeColor=#FFFFFF;" vertex="1" parent="227">
                    <mxGeometry y="208.8534273173756" width="40.625" height="39.16001762200792" as="geometry"/>
                </mxCell>
                <mxCell id="233" value="" style="ellipse;whiteSpace=wrap;html=1;strokeColor=#FFFFFF;" vertex="1" parent="227">
                    <mxGeometry y="261.0667841467195" width="40.625" height="39.16001762200792" as="geometry"/>
                </mxCell>
                <mxCell id="234" value="" style="ellipse;whiteSpace=wrap;html=1;strokeColor=#FFFFFF;" vertex="1" parent="227">
                    <mxGeometry y="313.28014097606336" width="40.625" height="39.16001762200792" as="geometry"/>
                </mxCell>
                <mxCell id="235" value="" style="ellipse;whiteSpace=wrap;html=1;strokeColor=#FFFFFF;" vertex="1" parent="227">
                    <mxGeometry y="365.49349780540734" width="40.625" height="39.16001762200792" as="geometry"/>
                </mxCell>
                <mxCell id="236" value="&lt;font style=&quot;font-size: 11px&quot;&gt;Home&lt;/font&gt;" style="rounded=0;whiteSpace=wrap;html=1;strokeColor=#FFFFFF;align=left;" vertex="1" parent="227">
                    <mxGeometry x="81.25" width="142.1875" height="40.46535154274152" as="geometry"/>
                </mxCell>
                <mxCell id="237" value="&lt;font style=&quot;font-size: 11px&quot;&gt;Explore&lt;/font&gt;" style="rounded=0;whiteSpace=wrap;html=1;strokeColor=#FFFFFF;align=left;" vertex="1" parent="227">
                    <mxGeometry x="81.25" y="52.220536165907944" width="142.1875" height="40.46535154274152" as="geometry"/>
                </mxCell>
                <mxCell id="238" value="&lt;font style=&quot;font-size: 11px&quot;&gt;Notifications&lt;/font&gt;" style="rounded=0;whiteSpace=wrap;html=1;strokeColor=#FFFFFF;align=left;" vertex="1" parent="227">
                    <mxGeometry x="81.25" y="104.42083965604452" width="142.1875" height="40.46535154274152" as="geometry"/>
                </mxCell>
                <mxCell id="239" value="&lt;font style=&quot;font-size: 11px&quot;&gt;Messages&lt;/font&gt;" style="rounded=0;whiteSpace=wrap;html=1;strokeColor=#FFFFFF;align=left;" vertex="1" parent="227">
                    <mxGeometry x="81.25" y="156.64137582195252" width="142.1875" height="40.46535154274152" as="geometry"/>
                </mxCell>
                <mxCell id="240" value="&lt;font style=&quot;font-size: 11px&quot;&gt;Bookmarks&lt;/font&gt;" style="rounded=0;whiteSpace=wrap;html=1;strokeColor=#FFFFFF;align=left;" vertex="1" parent="227">
                    <mxGeometry x="81.25" y="208.8619119878604" width="142.1875" height="40.46535154274152" as="geometry"/>
                </mxCell>
                <mxCell id="241" value="&lt;font style=&quot;font-size: 11px&quot;&gt;Lists&lt;/font&gt;" style="rounded=0;whiteSpace=wrap;html=1;strokeColor=#FFFFFF;align=left;" vertex="1" parent="227">
                    <mxGeometry x="81.25" y="261.0622154779969" width="142.1875" height="40.46535154274152" as="geometry"/>
                </mxCell>
                <mxCell id="242" value="&lt;font style=&quot;font-size: 11px&quot;&gt;Profile&lt;/font&gt;" style="rounded=0;whiteSpace=wrap;html=1;strokeColor=#FFFFFF;align=left;" vertex="1" parent="227">
                    <mxGeometry x="81.25" y="313.28275164390504" width="142.1875" height="40.46535154274152" as="geometry"/>
                </mxCell>
                <mxCell id="243" value="&lt;font style=&quot;font-size: 11px&quot;&gt;More&lt;/font&gt;" style="rounded=0;whiteSpace=wrap;html=1;strokeColor=#FFFFFF;align=left;" vertex="1" parent="227">
                    <mxGeometry x="81.25" y="365.50328780981295" width="142.1875" height="40.46535154274152" as="geometry"/>
                </mxCell>
                <mxCell id="244" value="" style="rounded=0;whiteSpace=wrap;html=1;" vertex="1" parent="186">
                    <mxGeometry y="641.6666666666666" width="341.25" height="100" as="geometry"/>
                </mxCell>
                <mxCell id="245" value="" style="group" vertex="1" connectable="0" parent="186">
                    <mxGeometry x="32.49999999999999" y="658.3333333333333" width="276.25" height="66.66666666666666" as="geometry"/>
                </mxCell>
                <mxCell id="246" value="" style="rounded=0;whiteSpace=wrap;html=1;" vertex="1" parent="245">
                    <mxGeometry width="64.99999999999999" height="66.66666666666666" as="geometry"/>
                </mxCell>
                <mxCell id="247" value="" style="ellipse;whiteSpace=wrap;html=1;strokeColor=#FFFFFF;" vertex="1" parent="245">
                    <mxGeometry x="8.124999999999998" y="8.333333333333332" width="48.75" height="50" as="geometry"/>
                </mxCell>
                <mxCell id="248" value="Name" style="rounded=0;whiteSpace=wrap;html=1;align=left;" vertex="1" parent="245">
                    <mxGeometry x="64.99999999999999" width="178.75" height="33.33333333333333" as="geometry"/>
                </mxCell>
                <mxCell id="249" value="Username" style="rounded=0;whiteSpace=wrap;html=1;align=left;" vertex="1" parent="245">
                    <mxGeometry x="64.99999999999999" y="33.33333333333333" width="178.75" height="33.33333333333333" as="geometry"/>
                </mxCell>
                <mxCell id="250" value="..." style="rounded=0;whiteSpace=wrap;html=1;" vertex="1" parent="245">
                    <mxGeometry x="243.74999999999997" width="32.49999999999999" height="66.66666666666666" as="geometry"/>
                </mxCell>
                <mxCell id="251" value="&amp;nbsp; &amp;nbsp; &amp;nbsp; &amp;nbsp; &amp;nbsp; &amp;nbsp; &amp;nbsp; &amp;nbsp; Search Twitter" style="rounded=1;whiteSpace=wrap;html=1;arcSize=50;align=left;" vertex="1" parent="186">
                    <mxGeometry x="909.9999999999999" y="18.33333333333333" width="373.75" height="48.33333333333333" as="geometry"/>
                </mxCell>
                <mxCell id="252" value="" style="ellipse;whiteSpace=wrap;html=1;" vertex="1" parent="186">
                    <mxGeometry x="926.2499999999999" y="25.83333333333333" width="32.49999999999999" height="33.33333333333333" as="geometry"/>
                </mxCell>
                <mxCell id="253" value="" style="rounded=1;whiteSpace=wrap;html=1;arcSize=4;" vertex="1" parent="186">
                    <mxGeometry x="910" y="83.33" width="373.75" height="376.67" as="geometry"/>
                </mxCell>
                <mxCell id="255" value="What's happening" style="rounded=0;whiteSpace=wrap;html=1;align=left;" vertex="1" parent="186">
                    <mxGeometry x="926.2499999999999" y="100" width="341.25" height="33.33333333333333" as="geometry"/>
                </mxCell>
                <mxCell id="256" value="" style="rounded=0;whiteSpace=wrap;html=1;align=left;" vertex="1" parent="186">
                    <mxGeometry x="926.2499999999999" y="141.66666666666669" width="341.25" height="275" as="geometry"/>
                </mxCell>
                <mxCell id="257" value="Show more" style="rounded=0;whiteSpace=wrap;html=1;align=left;" vertex="1" parent="186">
                    <mxGeometry x="926.25" y="429.17" width="130" height="20.83" as="geometry"/>
                </mxCell>
                <mxCell id="258" value="" style="group" vertex="1" connectable="0" parent="186">
                    <mxGeometry x="942.5" y="150" width="308.75" height="110" as="geometry"/>
                </mxCell>
                <mxCell id="259" value="" style="rounded=0;whiteSpace=wrap;html=1;" vertex="1" parent="258">
                    <mxGeometry width="308.75" height="110" as="geometry"/>
                </mxCell>
                <mxCell id="260" value="Category" style="rounded=0;whiteSpace=wrap;html=1;" vertex="1" parent="258">
                    <mxGeometry width="77.5" height="20" as="geometry"/>
                </mxCell>
                <mxCell id="261" value="Status" style="rounded=0;whiteSpace=wrap;html=1;" vertex="1" parent="258">
                    <mxGeometry x="77.5" width="85" height="20" as="geometry"/>
                </mxCell>
                <mxCell id="262" value="Stats" style="rounded=0;whiteSpace=wrap;html=1;" vertex="1" parent="258">
                    <mxGeometry y="90" width="67.5" height="20" as="geometry"/>
                </mxCell>
                <mxCell id="263" value="Content" style="rounded=0;whiteSpace=wrap;html=1;" vertex="1" parent="258">
                    <mxGeometry y="20" width="217.5" height="70" as="geometry"/>
                </mxCell>
                <mxCell id="264" value="Image" style="rounded=0;whiteSpace=wrap;html=1;" vertex="1" parent="258">
                    <mxGeometry x="227.5" y="20" width="67.5" height="70" as="geometry"/>
                </mxCell>
                <mxCell id="265" value="" style="group" vertex="1" connectable="0" parent="186">
                    <mxGeometry x="942.5" y="270" width="308.75" height="110" as="geometry"/>
                </mxCell>
                <mxCell id="266" value="" style="rounded=0;whiteSpace=wrap;html=1;" vertex="1" parent="265">
                    <mxGeometry width="308.75" height="110" as="geometry"/>
                </mxCell>
                <mxCell id="267" value="Category" style="rounded=0;whiteSpace=wrap;html=1;" vertex="1" parent="265">
                    <mxGeometry width="77.5" height="20" as="geometry"/>
                </mxCell>
                <mxCell id="268" value="Status" style="rounded=0;whiteSpace=wrap;html=1;" vertex="1" parent="265">
                    <mxGeometry x="77.5" width="85" height="20" as="geometry"/>
                </mxCell>
                <mxCell id="269" value="Stats" style="rounded=0;whiteSpace=wrap;html=1;" vertex="1" parent="265">
                    <mxGeometry y="90" width="67.5" height="20" as="geometry"/>
                </mxCell>
                <mxCell id="270" value="Content" style="rounded=0;whiteSpace=wrap;html=1;" vertex="1" parent="265">
                    <mxGeometry y="20" width="217.5" height="70" as="geometry"/>
                </mxCell>
                <mxCell id="271" value="Image" style="rounded=0;whiteSpace=wrap;html=1;" vertex="1" parent="265">
                    <mxGeometry x="227.5" y="20" width="67.5" height="70" as="geometry"/>
                </mxCell>
                <mxCell id="287" value="Show more" style="rounded=0;whiteSpace=wrap;html=1;align=left;" vertex="1" parent="186">
                    <mxGeometry x="910" y="690" width="370" height="40.83" as="geometry"/>
                </mxCell>
                <mxCell id="288" value="" style="group" vertex="1" connectable="0" parent="186">
                    <mxGeometry x="910" y="475" width="373.75" height="200" as="geometry"/>
                </mxCell>
                <mxCell id="254" value="" style="rounded=1;whiteSpace=wrap;html=1;arcSize=4;" vertex="1" parent="288">
                    <mxGeometry width="373.75" height="200" as="geometry"/>
                </mxCell>
                <mxCell id="272" value="Who to follow" style="rounded=0;whiteSpace=wrap;html=1;align=left;" vertex="1" parent="288">
                    <mxGeometry x="10" y="6.670000000000016" width="120" height="23.33" as="geometry"/>
                </mxCell>
                <mxCell id="279" value="" style="group" vertex="1" connectable="0" parent="288">
                    <mxGeometry x="10" y="33.33000000000004" width="350" height="60" as="geometry"/>
                </mxCell>
                <mxCell id="273" value="" style="rounded=0;whiteSpace=wrap;html=1;" vertex="1" parent="279">
                    <mxGeometry width="350" height="60" as="geometry"/>
                </mxCell>
                <mxCell id="274" value="Follow" style="rounded=1;whiteSpace=wrap;html=1;arcSize=50;" vertex="1" parent="279">
                    <mxGeometry x="270" y="15" width="70" height="30" as="geometry"/>
                </mxCell>
                <mxCell id="275" value="" style="ellipse;whiteSpace=wrap;html=1;" vertex="1" parent="279">
                    <mxGeometry x="6.25" y="13.329999999999927" width="33.75" height="33.33" as="geometry"/>
                </mxCell>
                <mxCell id="276" value="Name" style="rounded=0;whiteSpace=wrap;html=1;align=left;" vertex="1" parent="279">
                    <mxGeometry x="50" y="16.329999999999927" width="207.5" height="13.34" as="geometry"/>
                </mxCell>
                <mxCell id="280" value="" style="group" vertex="1" connectable="0" parent="288">
                    <mxGeometry x="10" y="98.33000000000004" width="350" height="67.48999999999997" as="geometry"/>
                </mxCell>
                <mxCell id="281" value="" style="rounded=0;whiteSpace=wrap;html=1;" vertex="1" parent="280">
                    <mxGeometry width="350" height="60" as="geometry"/>
                </mxCell>
                <mxCell id="282" value="Follow" style="rounded=1;whiteSpace=wrap;html=1;arcSize=50;" vertex="1" parent="280">
                    <mxGeometry x="270" y="15" width="70" height="30" as="geometry"/>
                </mxCell>
                <mxCell id="283" value="" style="ellipse;whiteSpace=wrap;html=1;" vertex="1" parent="280">
                    <mxGeometry x="6.25" y="13.329999999999927" width="33.75" height="33.33" as="geometry"/>
                </mxCell>
                <mxCell id="284" value="Name" style="rounded=0;whiteSpace=wrap;html=1;align=left;" vertex="1" parent="280">
                    <mxGeometry x="50" y="16.329999999999927" width="207.5" height="13.34" as="geometry"/>
                </mxCell>
                <mxCell id="285" value="Show more" style="rounded=0;whiteSpace=wrap;html=1;align=left;" vertex="1" parent="280">
                    <mxGeometry y="67.48999999999997" width="130" height="20.83" as="geometry"/>
                </mxCell>
                <mxCell id="278" value="Username" style="rounded=0;whiteSpace=wrap;html=1;align=left;" vertex="1" parent="1">
                    <mxGeometry x="1020" y="613" width="207.5" height="13.34" as="geometry"/>
                </mxCell>
            </root>
        </mxGraphModel>
    </diagram>
</mxfile>